<svg width="10" height="10" viewBox="0 0 10 10" fill="none" xmlns="http://www.w3.org/2000/svg">
<path d="M2.22222 10C2.06481 10 1.93278 9.94667 1.82611 9.84C1.71982 9.7337 1.66667 9.60185 1.66667 9.44444C1.66667 9.28704 1.71982 9.15519 1.82611 9.04889C1.93278 8.94222 2.06481 8.88889 2.22222 8.88889H4.44444V6.11111L0.194444 1.33333C0.138889 1.26852 0.0925925 1.18741 0.0555555 1.09C0.0185185 0.992963 0 0.898148 0 0.805555C0 0.583333 0.0787037 0.393519 0.236111 0.236111C0.393519 0.0787037 0.583333 0 0.805555 0H9.19444C9.41667 0 9.60648 0.0787037 9.76389 0.236111C9.9213 0.393519 10 0.587963 10 0.819444C10 0.902778 9.98148 0.992963 9.94444 1.09C9.90741 1.18741 9.86111 1.26852 9.80556 1.33333L5.55556 6.11111V8.88889H7.77778C7.93519 8.88889 8.06704 8.94222 8.17333 9.04889C8.28 9.15519 8.33333 9.28704 8.33333 9.44444C8.33333 9.60185 8.28 9.7337 8.17333 9.84C8.06704 9.94667 7.93519 10 7.77778 10H2.22222ZM2.47222 2.22222H7.52778L8.52778 1.11111H1.47222L2.47222 2.22222ZM5 5.05556L6.54167 3.33333H3.45833L5 5.05556Z" fill="#DB2763"/>
</svg>
