<svg width="1440" height="473" viewBox="0 0 1440 473" fill="none" xmlns="http://www.w3.org/2000/svg" xmlns:xlink="http://www.w3.org/1999/xlink">
<rect width="1440" height="473" fill="url(#pattern0_762_2062)" fill-opacity="0.25"/>
<defs>
<pattern id="pattern0_762_2062" patternUnits="userSpaceOnUse" viewBox="8405.47 -4003.52 365.165 420.205" width="25.358672672474285%" height="88.838358314091607%" patternContentUnits="objectBoundingBox">
<g id="pattern0_762_2062_inner">
<mask id="path-1-outside-1_762_2062" maskUnits="userSpaceOnUse" x="8095.56" y="-4189.6" width="323.52" height="228.354">
<rect fill="white" x="8095.56" y="-4189.6" width="323.52" height="228.354"/>
<path d="M8130.98 -3964.37L8097.96 -4021.57L8116.33 -4032.18L8149.36 -3974.98L8130.98 -3964.37ZM8200.79 -4004.68L8193.73 -4011.35L8173.69 -3999.78L8175.93 -3990.33L8157.14 -3979.48L8144.99 -4048.73L8166.36 -4061.06L8220.25 -4015.91L8200.79 -4004.68ZM8170.12 -4014.79L8182.51 -4021.95L8164.76 -4038.86L8164.43 -4038.67L8170.12 -4014.79ZM8232.23 -4099.09C8235.11 -4100.76 8238.09 -4101.67 8241.18 -4101.82C8244.29 -4102.07 8247.16 -4101.51 8249.8 -4100.15C8252.49 -4098.82 8254.6 -4096.82 8256.14 -4094.16C8260.2 -4087.12 8259.57 -4080.85 8254.25 -4075.34L8254.45 -4075.01C8262.67 -4077.54 8269.05 -4074.87 8273.59 -4067C8275.32 -4064 8276.11 -4060.91 8275.96 -4057.72C8275.83 -4054.61 8274.86 -4051.69 8273.04 -4048.94C8271.23 -4046.2 8268.8 -4043.94 8265.75 -4042.18L8227.17 -4019.91L8194.15 -4077.11L8232.23 -4099.09ZM8225.39 -4065.44L8238.02 -4072.73C8239.24 -4073.44 8240 -4074.43 8240.3 -4075.71C8240.62 -4077.07 8240.41 -4078.39 8239.67 -4079.67L8239.19 -4080.5C8238.49 -4081.72 8237.48 -4082.51 8236.17 -4082.86C8234.83 -4083.26 8233.57 -4083.13 8232.41 -4082.46L8219.77 -4075.16L8225.39 -4065.44ZM8237.87 -4043.82L8251.84 -4051.88C8253.05 -4052.59 8253.81 -4053.58 8254.11 -4054.86C8254.43 -4056.23 8254.22 -4057.55 8253.48 -4058.82L8253 -4059.65C8252.27 -4060.93 8251.24 -4061.74 8249.93 -4062.09C8248.64 -4062.53 8247.39 -4062.4 8246.17 -4061.69L8232.2 -4053.63L8237.87 -4043.82ZM8286.72 -4131.88C8296.58 -4137.58 8305.66 -4139.46 8313.95 -4137.52C8322.24 -4135.58 8329.16 -4129.79 8334.73 -4120.14C8340.3 -4110.5 8341.85 -4101.6 8339.39 -4093.45C8336.92 -4085.31 8330.76 -4078.38 8320.89 -4072.69C8311.03 -4066.99 8301.97 -4065.09 8293.71 -4066.97C8285.48 -4068.94 8278.56 -4074.78 8272.96 -4084.48C8267.36 -4094.18 8265.78 -4103.06 8268.22 -4111.12C8270.69 -4119.26 8276.85 -4126.19 8286.72 -4131.88ZM8294.64 -4118.16C8290.7 -4115.89 8288.4 -4112.97 8287.72 -4109.41C8287.05 -4105.84 8287.88 -4102.03 8290.21 -4097.99L8293.28 -4092.66C8295.62 -4088.62 8298.5 -4086 8301.93 -4084.8C8305.36 -4083.6 8309.04 -4084.13 8312.97 -4086.41C8316.91 -4088.68 8319.21 -4091.6 8319.89 -4095.16C8320.62 -4098.76 8319.81 -4102.59 8317.48 -4106.63L8314.41 -4111.95C8312.07 -4116 8309.16 -4118.61 8305.68 -4119.77C8302.25 -4120.97 8298.57 -4120.44 8294.64 -4118.16ZM8396.62 -4117.74L8389.56 -4124.41L8369.52 -4112.85L8371.76 -4103.39L8352.97 -4092.54L8340.82 -4161.79L8362.19 -4174.12L8416.08 -4128.97L8396.62 -4117.74ZM8365.95 -4127.86L8378.34 -4135.01L8360.59 -4151.92L8360.26 -4151.73L8365.95 -4127.86Z"/>
</mask>
<path d="M8130.98 -3964.37L8130.12 -3963.87L8130.62 -3963.01L8131.48 -3963.51L8130.98 -3964.37ZM8097.96 -4021.57L8097.46 -4022.44L8096.59 -4021.94L8097.09 -4021.07L8097.96 -4021.57ZM8116.33 -4032.18L8117.2 -4032.68L8116.7 -4033.55L8115.83 -4033.05L8116.33 -4032.18ZM8149.36 -3974.98L8149.86 -3974.12L8150.72 -3974.62L8150.22 -3975.48L8149.36 -3974.98ZM8130.98 -3964.37L8131.85 -3964.87L8098.83 -4022.07L8097.96 -4021.57L8097.09 -4021.07L8130.12 -3963.87L8130.98 -3964.37ZM8097.96 -4021.57L8098.46 -4020.71L8116.83 -4031.32L8116.33 -4032.18L8115.83 -4033.05L8097.46 -4022.44L8097.96 -4021.57ZM8116.33 -4032.18L8115.47 -4031.68L8148.49 -3974.48L8149.36 -3974.98L8150.22 -3975.48L8117.2 -4032.68L8116.33 -4032.18ZM8149.36 -3974.98L8148.86 -3975.85L8130.48 -3965.24L8130.98 -3964.37L8131.48 -3963.51L8149.86 -3974.12L8149.36 -3974.98ZM8200.79 -4004.68L8200.11 -4003.95L8200.65 -4003.44L8201.29 -4003.81L8200.79 -4004.68ZM8193.73 -4011.35L8194.41 -4012.08L8193.87 -4012.59L8193.23 -4012.22L8193.73 -4011.35ZM8173.69 -3999.78L8173.19 -4000.65L8172.54 -4000.28L8172.72 -3999.55L8173.69 -3999.78ZM8175.93 -3990.33L8176.43 -3989.46L8177.08 -3989.83L8176.91 -3990.56L8175.93 -3990.33ZM8157.14 -3979.48L8156.16 -3979.31L8156.41 -3977.9L8157.64 -3978.61L8157.14 -3979.48ZM8144.99 -4048.73L8144.49 -4049.59L8143.88 -4049.24L8144 -4048.55L8144.99 -4048.73ZM8166.36 -4061.06L8167 -4061.83L8166.46 -4062.28L8165.86 -4061.93L8166.36 -4061.06ZM8220.25 -4015.91L8220.75 -4015.04L8221.98 -4015.76L8220.89 -4016.68L8220.25 -4015.91ZM8170.12 -4014.79L8169.15 -4014.56L8169.46 -4013.26L8170.62 -4013.93L8170.12 -4014.79ZM8182.51 -4021.95L8183.01 -4021.08L8184.17 -4021.75L8183.2 -4022.67L8182.51 -4021.95ZM8164.76 -4038.86L8165.45 -4039.58L8164.91 -4040.1L8164.26 -4039.73L8164.76 -4038.86ZM8164.43 -4038.67L8163.93 -4039.53L8163.29 -4039.16L8163.46 -4038.44L8164.43 -4038.67ZM8200.79 -4004.68L8201.48 -4005.41L8194.41 -4012.08L8193.73 -4011.35L8193.04 -4010.62L8200.11 -4003.95L8200.79 -4004.68ZM8193.73 -4011.35L8193.23 -4012.22L8173.19 -4000.65L8173.69 -3999.78L8174.19 -3998.92L8194.23 -4010.48L8193.73 -4011.35ZM8173.69 -3999.78L8172.72 -3999.55L8174.96 -3990.1L8175.93 -3990.33L8176.91 -3990.56L8174.66 -4000.01L8173.69 -3999.78ZM8175.93 -3990.33L8175.43 -3991.19L8156.64 -3980.34L8157.14 -3979.48L8157.64 -3978.61L8176.43 -3989.46L8175.93 -3990.33ZM8157.14 -3979.48L8158.13 -3979.65L8145.97 -4048.9L8144.99 -4048.73L8144 -4048.55L8156.16 -3979.31L8157.14 -3979.48ZM8144.99 -4048.73L8145.49 -4047.86L8166.86 -4060.2L8166.36 -4061.06L8165.86 -4061.93L8144.49 -4049.59L8144.99 -4048.73ZM8166.36 -4061.06L8165.71 -4060.3L8219.6 -4015.14L8220.25 -4015.91L8220.89 -4016.68L8167 -4061.83L8166.36 -4061.06ZM8220.25 -4015.91L8219.75 -4016.78L8200.29 -4005.54L8200.79 -4004.68L8201.29 -4003.81L8220.75 -4015.04L8220.25 -4015.91ZM8170.12 -4014.79L8170.62 -4013.93L8183.01 -4021.08L8182.51 -4021.95L8182.01 -4022.81L8169.62 -4015.66L8170.12 -4014.79ZM8182.51 -4021.95L8183.2 -4022.67L8165.45 -4039.58L8164.76 -4038.86L8164.07 -4038.14L8181.82 -4021.22L8182.51 -4021.95ZM8164.76 -4038.86L8164.26 -4039.73L8163.93 -4039.53L8164.43 -4038.67L8164.93 -4037.8L8165.26 -4037.99L8164.76 -4038.86ZM8164.43 -4038.67L8163.46 -4038.44L8169.15 -4014.56L8170.12 -4014.79L8171.09 -4015.03L8165.4 -4038.9L8164.43 -4038.67ZM8241.18 -4101.82L8241.23 -4100.83L8241.25 -4100.83L8241.26 -4100.83L8241.18 -4101.82ZM8249.8 -4100.15L8249.34 -4099.26L8249.35 -4099.26L8249.36 -4099.25L8249.8 -4100.15ZM8254.25 -4075.34L8253.54 -4076.04L8253.01 -4075.49L8253.39 -4074.84L8254.25 -4075.34ZM8254.45 -4075.01L8253.58 -4074.51L8253.98 -4073.82L8254.74 -4074.05L8254.45 -4075.01ZM8275.96 -4057.72L8274.96 -4057.77L8274.96 -4057.76L8275.96 -4057.72ZM8227.17 -4019.91L8226.31 -4019.41L8226.81 -4018.54L8227.67 -4019.04L8227.17 -4019.91ZM8194.15 -4077.11L8193.65 -4077.98L8192.78 -4077.48L8193.28 -4076.61L8194.15 -4077.11ZM8225.39 -4065.44L8224.52 -4064.94L8225.02 -4064.07L8225.89 -4064.57L8225.39 -4065.44ZM8240.3 -4075.71L8239.32 -4075.93L8239.32 -4075.93L8240.3 -4075.71ZM8236.17 -4082.86L8235.88 -4081.9L8235.9 -4081.9L8235.91 -4081.89L8236.17 -4082.86ZM8219.77 -4075.16L8219.27 -4076.03L8218.41 -4075.53L8218.91 -4074.66L8219.77 -4075.16ZM8237.87 -4043.82L8237 -4043.32L8237.5 -4042.45L8238.37 -4042.95L8237.87 -4043.82ZM8254.11 -4054.86L8253.13 -4055.09L8253.13 -4055.08L8254.11 -4054.86ZM8249.93 -4062.09L8249.61 -4061.15L8249.64 -4061.13L8249.67 -4061.13L8249.93 -4062.09ZM8232.2 -4053.63L8231.7 -4054.5L8230.84 -4054L8231.34 -4053.13L8232.2 -4053.63ZM8232.23 -4099.09L8232.73 -4098.23C8235.48 -4099.82 8238.32 -4100.68 8241.23 -4100.83L8241.18 -4101.82L8241.13 -4102.82C8237.87 -4102.66 8234.74 -4101.7 8231.73 -4099.96L8232.23 -4099.09ZM8241.18 -4101.82L8241.26 -4100.83C8244.2 -4101.06 8246.88 -4100.53 8249.34 -4099.26L8249.8 -4100.15L8250.26 -4101.04C8247.45 -4102.49 8244.39 -4103.08 8241.1 -4102.82L8241.18 -4101.82ZM8249.8 -4100.15L8249.36 -4099.25C8251.86 -4098.01 8253.83 -4096.16 8255.27 -4093.66L8256.14 -4094.16L8257 -4094.66C8255.37 -4097.49 8253.11 -4099.62 8250.24 -4101.04L8249.8 -4100.15ZM8256.14 -4094.16L8255.27 -4093.66C8257.23 -4090.27 8258.01 -4087.15 8257.72 -4084.28C8257.43 -4081.41 8256.07 -4078.66 8253.54 -4076.04L8254.25 -4075.34L8254.97 -4074.65C8257.76 -4077.53 8259.37 -4080.67 8259.71 -4084.08C8260.05 -4087.48 8259.11 -4091.01 8257 -4094.66L8256.14 -4094.16ZM8254.25 -4075.34L8253.39 -4074.84L8253.58 -4074.51L8254.45 -4075.01L8255.31 -4075.51L8255.12 -4075.84L8254.25 -4075.34ZM8254.45 -4075.01L8254.74 -4074.05C8258.68 -4075.27 8262.09 -4075.2 8265.01 -4073.98C8267.95 -4072.75 8270.53 -4070.3 8272.73 -4066.5L8273.59 -4067L8274.46 -4067.5C8272.11 -4071.56 8269.23 -4074.38 8265.79 -4075.82C8262.33 -4077.27 8258.43 -4077.28 8254.15 -4075.96L8254.45 -4075.01ZM8273.59 -4067L8272.73 -4066.5C8274.37 -4063.66 8275.1 -4060.75 8274.96 -4057.77L8275.96 -4057.72L8276.96 -4057.67C8277.12 -4061.07 8276.28 -4064.35 8274.46 -4067.5L8273.59 -4067ZM8275.96 -4057.72L8274.96 -4057.76C8274.84 -4054.85 8273.93 -4052.1 8272.21 -4049.49L8273.04 -4048.94L8273.88 -4048.39C8275.79 -4051.28 8276.82 -4054.38 8276.96 -4057.68L8275.96 -4057.72ZM8273.04 -4048.94L8272.21 -4049.49C8270.49 -4046.88 8268.17 -4044.74 8265.25 -4043.05L8265.75 -4042.18L8266.25 -4041.32C8269.42 -4043.15 8271.97 -4045.51 8273.88 -4048.39L8273.04 -4048.94ZM8265.75 -4042.18L8265.25 -4043.05L8226.67 -4020.78L8227.17 -4019.91L8227.67 -4019.04L8266.25 -4041.32L8265.75 -4042.18ZM8227.17 -4019.91L8228.04 -4020.41L8195.02 -4077.61L8194.15 -4077.11L8193.28 -4076.61L8226.31 -4019.41L8227.17 -4019.91ZM8194.15 -4077.11L8194.65 -4076.24L8232.73 -4098.23L8232.23 -4099.09L8231.73 -4099.96L8193.65 -4077.98L8194.15 -4077.11ZM8225.39 -4065.44L8225.89 -4064.57L8238.52 -4071.87L8238.02 -4072.73L8237.52 -4073.6L8224.89 -4066.3L8225.39 -4065.44ZM8238.02 -4072.73L8238.52 -4071.87C8239.96 -4072.7 8240.91 -4073.91 8241.27 -4075.48L8240.3 -4075.71L8239.32 -4075.93C8239.09 -4074.94 8238.52 -4074.17 8237.52 -4073.6L8238.02 -4072.73ZM8240.3 -4075.71L8241.27 -4075.48C8241.65 -4077.11 8241.4 -4078.69 8240.54 -4080.17L8239.67 -4079.67L8238.81 -4079.17C8239.42 -4078.1 8239.58 -4077.04 8239.32 -4075.93L8240.3 -4075.71ZM8239.67 -4079.67L8240.54 -4080.17L8240.06 -4081L8239.19 -4080.5L8238.33 -4080L8238.81 -4079.17L8239.67 -4079.67ZM8239.19 -4080.5L8240.06 -4081C8239.23 -4082.44 8238.01 -4083.4 8236.43 -4083.82L8236.17 -4082.86L8235.91 -4081.89C8236.96 -4081.61 8237.75 -4081 8238.33 -4080L8239.19 -4080.5ZM8236.17 -4082.86L8236.46 -4083.81C8234.86 -4084.3 8233.32 -4084.14 8231.91 -4083.33L8232.41 -4082.46L8232.91 -4081.59C8233.82 -4082.12 8234.79 -4082.23 8235.88 -4081.9L8236.17 -4082.86ZM8232.41 -4082.46L8231.91 -4083.33L8219.27 -4076.03L8219.77 -4075.16L8220.27 -4074.3L8232.91 -4081.59L8232.41 -4082.46ZM8219.77 -4075.16L8218.91 -4074.66L8224.52 -4064.94L8225.39 -4065.44L8226.25 -4065.94L8220.64 -4075.66L8219.77 -4075.16ZM8237.87 -4043.82L8238.37 -4042.95L8252.34 -4051.02L8251.84 -4051.88L8251.34 -4052.75L8237.37 -4044.69L8237.87 -4043.82ZM8251.84 -4051.88L8252.34 -4051.02C8253.78 -4051.85 8254.72 -4053.06 8255.08 -4054.63L8254.11 -4054.86L8253.13 -4055.08C8252.91 -4054.1 8252.33 -4053.33 8251.34 -4052.75L8251.84 -4051.88ZM8254.11 -4054.86L8255.08 -4054.63C8255.46 -4056.26 8255.21 -4057.84 8254.35 -4059.32L8253.48 -4058.82L8252.62 -4058.32C8253.23 -4057.25 8253.39 -4056.19 8253.13 -4055.09L8254.11 -4054.86ZM8253.48 -4058.82L8254.35 -4059.32L8253.87 -4060.15L8253 -4059.65L8252.14 -4059.15L8252.62 -4058.32L8253.48 -4058.82ZM8253 -4059.65L8253.87 -4060.15C8253.01 -4061.64 8251.78 -4062.63 8250.19 -4063.06L8249.93 -4062.09L8249.67 -4061.13C8250.71 -4060.85 8251.52 -4060.22 8252.14 -4059.15L8253 -4059.65ZM8249.93 -4062.09L8250.25 -4063.04C8248.68 -4063.57 8247.13 -4063.4 8245.67 -4062.56L8246.17 -4061.69L8246.67 -4060.83C8247.65 -4061.39 8248.61 -4061.49 8249.61 -4061.15L8249.93 -4062.09ZM8246.17 -4061.69L8245.67 -4062.56L8231.7 -4054.5L8232.2 -4053.63L8232.7 -4052.76L8246.67 -4060.83L8246.17 -4061.69ZM8232.2 -4053.63L8231.34 -4053.13L8237 -4043.32L8237.87 -4043.82L8238.73 -4044.32L8233.07 -4054.13L8232.2 -4053.63ZM8339.39 -4093.45L8338.43 -4093.74L8339.39 -4093.45ZM8293.71 -4066.97L8293.48 -4066L8293.49 -4066L8293.71 -4066.97ZM8268.22 -4111.12L8269.18 -4110.83L8269.18 -4110.83L8268.22 -4111.12ZM8287.72 -4109.41L8288.7 -4109.22L8287.72 -4109.41ZM8319.89 -4095.16L8318.91 -4095.36L8318.9 -4095.35L8319.89 -4095.16ZM8305.68 -4119.77L8305.35 -4118.83L8305.36 -4118.83L8305.68 -4119.77ZM8286.72 -4131.88L8287.22 -4131.02C8296.94 -4136.63 8305.75 -4138.41 8313.72 -4136.54L8313.95 -4137.52L8314.17 -4138.49C8305.56 -4140.51 8296.23 -4138.53 8286.22 -4132.75L8286.72 -4131.88ZM8313.95 -4137.52L8313.72 -4136.54C8321.66 -4134.68 8328.39 -4129.12 8333.87 -4119.64L8334.73 -4120.14L8335.6 -4120.64C8329.94 -4130.45 8322.81 -4136.47 8314.17 -4138.49L8313.95 -4137.52ZM8334.73 -4120.14L8333.87 -4119.64C8339.34 -4110.16 8340.79 -4101.55 8338.43 -4093.74L8339.39 -4093.45L8340.34 -4093.16C8342.91 -4101.65 8341.26 -4110.84 8335.6 -4120.64L8334.73 -4120.14ZM8339.39 -4093.45L8338.43 -4093.74C8336.06 -4085.91 8330.11 -4079.17 8320.39 -4073.55L8320.89 -4072.69L8321.39 -4071.82C8331.4 -4077.6 8337.78 -4084.7 8340.34 -4093.16L8339.39 -4093.45ZM8320.89 -4072.69L8320.39 -4073.55C8310.67 -4067.94 8301.87 -4066.13 8293.93 -4067.95L8293.71 -4066.97L8293.49 -4066C8302.06 -4064.04 8311.38 -4066.04 8321.39 -4071.82L8320.89 -4072.69ZM8293.71 -4066.97L8293.94 -4067.94C8286.05 -4069.83 8279.33 -4075.43 8273.83 -4084.98L8272.96 -4084.48L8272.09 -4083.98C8277.78 -4074.12 8284.9 -4068.05 8293.48 -4066L8293.71 -4066.97ZM8272.96 -4084.48L8273.83 -4084.98C8268.32 -4094.52 8266.84 -4103.11 8269.18 -4110.83L8268.22 -4111.12L8267.26 -4111.41C8264.72 -4103 8266.4 -4093.83 8272.09 -4083.98L8272.96 -4084.48ZM8268.22 -4111.12L8269.18 -4110.83C8271.55 -4118.66 8277.49 -4125.4 8287.22 -4131.02L8286.72 -4131.88L8286.22 -4132.75C8276.21 -4126.97 8269.82 -4119.87 8267.26 -4111.41L8268.22 -4111.12ZM8294.64 -4118.16L8294.14 -4119.03C8290.02 -4116.65 8287.48 -4113.51 8286.74 -4109.59L8287.72 -4109.41L8288.7 -4109.22C8289.31 -4112.43 8291.38 -4115.13 8295.14 -4117.3L8294.64 -4118.16ZM8287.72 -4109.41L8286.74 -4109.59C8286.01 -4105.73 8286.93 -4101.68 8289.35 -4097.49L8290.21 -4097.99L8291.08 -4098.49C8288.83 -4102.38 8288.08 -4105.95 8288.7 -4109.22L8287.72 -4109.41ZM8290.21 -4097.99L8289.35 -4097.49L8292.42 -4092.16L8293.28 -4092.66L8294.15 -4093.16L8291.08 -4098.49L8290.21 -4097.99ZM8293.28 -4092.66L8292.42 -4092.16C8294.84 -4087.97 8297.89 -4085.15 8301.6 -4083.85L8301.93 -4084.8L8302.26 -4085.74C8299.12 -4086.84 8296.4 -4089.26 8294.15 -4093.16L8293.28 -4092.66ZM8301.93 -4084.8L8301.6 -4083.85C8305.37 -4082.53 8309.35 -4083.16 8313.47 -4085.54L8312.97 -4086.41L8312.47 -4087.27C8308.72 -4085.11 8305.34 -4084.66 8302.26 -4085.74L8301.93 -4084.8ZM8312.97 -4086.41L8313.47 -4085.54C8317.59 -4087.92 8320.13 -4091.06 8320.87 -4094.98L8319.89 -4095.16L8318.9 -4095.35C8318.3 -4092.14 8316.22 -4089.44 8312.47 -4087.27L8312.97 -4086.41ZM8319.89 -4095.16L8320.87 -4094.97C8321.66 -4098.86 8320.77 -4102.93 8318.34 -4107.13L8317.48 -4106.63L8316.61 -4106.13C8318.86 -4102.24 8319.58 -4098.66 8318.91 -4095.36L8319.89 -4095.16ZM8317.48 -4106.63L8318.34 -4107.13L8315.27 -4112.45L8314.41 -4111.95L8313.54 -4111.45L8316.61 -4106.13L8317.48 -4106.63ZM8314.41 -4111.95L8315.27 -4112.45C8312.85 -4116.65 8309.77 -4119.46 8306 -4120.72L8305.68 -4119.77L8305.36 -4118.83C8308.55 -4117.75 8311.29 -4115.35 8313.54 -4111.45L8314.41 -4111.95ZM8305.68 -4119.77L8306.01 -4120.72C8302.24 -4122.04 8298.25 -4121.41 8294.14 -4119.03L8294.64 -4118.16L8295.14 -4117.3C8298.89 -4119.46 8302.26 -4119.91 8305.35 -4118.83L8305.68 -4119.77ZM8396.62 -4117.74L8395.94 -4117.01L8396.48 -4116.5L8397.12 -4116.88L8396.62 -4117.74ZM8389.56 -4124.41L8390.24 -4125.14L8389.7 -4125.65L8389.06 -4125.28L8389.56 -4124.41ZM8369.52 -4112.85L8369.02 -4113.71L8368.37 -4113.34L8368.55 -4112.61L8369.52 -4112.85ZM8371.76 -4103.39L8372.26 -4102.52L8372.91 -4102.9L8372.74 -4103.62L8371.76 -4103.39ZM8352.97 -4092.54L8351.99 -4092.37L8352.24 -4090.96L8353.47 -4091.68L8352.97 -4092.54ZM8340.82 -4161.79L8340.32 -4162.65L8339.71 -4162.3L8339.83 -4161.62L8340.82 -4161.79ZM8362.19 -4174.12L8362.83 -4174.89L8362.29 -4175.34L8361.69 -4174.99L8362.19 -4174.12ZM8416.08 -4128.97L8416.58 -4128.11L8417.81 -4128.82L8416.72 -4129.74L8416.08 -4128.97ZM8365.95 -4127.86L8364.98 -4127.62L8365.29 -4126.32L8366.45 -4126.99L8365.95 -4127.86ZM8378.34 -4135.01L8378.84 -4134.14L8380 -4134.81L8379.03 -4135.73L8378.34 -4135.01ZM8360.59 -4151.92L8361.28 -4152.65L8360.74 -4153.16L8360.09 -4152.79L8360.59 -4151.92ZM8360.26 -4151.73L8359.76 -4152.6L8359.12 -4152.22L8359.29 -4151.5L8360.26 -4151.73ZM8396.62 -4117.74L8397.31 -4118.47L8390.24 -4125.14L8389.56 -4124.41L8388.87 -4123.69L8395.94 -4117.01L8396.62 -4117.74ZM8389.56 -4124.41L8389.06 -4125.28L8369.02 -4113.71L8369.52 -4112.85L8370.02 -4111.98L8390.06 -4123.55L8389.56 -4124.41ZM8369.52 -4112.85L8368.55 -4112.61L8370.79 -4103.16L8371.76 -4103.39L8372.74 -4103.62L8370.49 -4113.08L8369.52 -4112.85ZM8371.76 -4103.39L8371.26 -4104.26L8352.47 -4093.41L8352.97 -4092.54L8353.47 -4091.68L8372.26 -4102.52L8371.76 -4103.39ZM8352.97 -4092.54L8353.96 -4092.71L8341.8 -4161.96L8340.82 -4161.79L8339.83 -4161.62L8351.99 -4092.37L8352.97 -4092.54ZM8340.82 -4161.79L8341.32 -4160.92L8362.69 -4173.26L8362.19 -4174.12L8361.69 -4174.99L8340.32 -4162.65L8340.82 -4161.79ZM8362.19 -4174.12L8361.54 -4173.36L8415.43 -4128.21L8416.08 -4128.97L8416.72 -4129.74L8362.83 -4174.89L8362.19 -4174.12ZM8416.08 -4128.97L8415.58 -4129.84L8396.12 -4118.61L8396.62 -4117.74L8397.12 -4116.88L8416.58 -4128.11L8416.08 -4128.97ZM8365.95 -4127.86L8366.45 -4126.99L8378.84 -4134.14L8378.34 -4135.01L8377.84 -4135.87L8365.45 -4128.72L8365.95 -4127.86ZM8378.34 -4135.01L8379.03 -4135.73L8361.28 -4152.65L8360.59 -4151.92L8359.9 -4151.2L8377.65 -4134.28L8378.34 -4135.01ZM8360.59 -4151.92L8360.09 -4152.79L8359.76 -4152.6L8360.26 -4151.73L8360.76 -4150.86L8361.09 -4151.06L8360.59 -4151.92ZM8360.26 -4151.73L8359.29 -4151.5L8364.98 -4127.62L8365.95 -4127.86L8366.92 -4128.09L8361.23 -4151.96L8360.26 -4151.73Z" fill="white" mask="url(#path-1-outside-1_762_2062)"/>
</g>
<use xlink:href="#pattern0_762_2062_inner" transform="translate(212.279 0)"/>
<use xlink:href="#pattern0_762_2062_inner" transform="translate(106.139 181.326)"/>
<use xlink:href="#pattern0_762_2062_inner" transform="translate(318.418 181.326)"/>
<use xlink:href="#pattern0_762_2062_inner" transform="translate(0 362.652)"/>
<use xlink:href="#pattern0_762_2062_inner" transform="translate(212.279 362.652)"/>
</pattern></defs>
</svg>
